<?xml version="1.0" encoding="utf-8"?>
<!-- Generator: Adobe Illustrator 16.0.0, SVG Export Plug-In . SVG Version: 6.00 Build 0)  -->
<!DOCTYPE svg PUBLIC "-//W3C//DTD SVG 1.1//EN" "http://www.w3.org/Graphics/SVG/1.1/DTD/svg11.dtd">
<svg version="1.1" id="Layer_1" xmlns="http://www.w3.org/2000/svg" xmlns:xlink="http://www.w3.org/1999/xlink" x="0px" y="0px"
	 width="929.18px" height="773.79px" viewBox="0 0 929.18 773.79" enable-background="new 0 0 929.18 773.79" xml:space="preserve">
<g id="Layer_7" display="none">
	<polygon display="inline" fill="#585889" points="1035.45,807.81 932,851.89 854.52,770.92 949.61,773.31 1019.02,765.73 
		1114,745.89 1095.75,771.41 	"/>
	<polygon display="inline" fill="#585889" points="551.4,929.56 551.59,886.67 535.95,886.64 451.47,779.67 452.56,768.06 
		592.96,770.48 649.95,749.64 806.2,767.86 901.54,862.16 786.04,896.41 667.98,920.78 	"/>
	<polygon display="inline" fill="#585889" points="221.5,884.39 221.5,929.39 156.31,910.98 97.6,874.7 57.52,827.4 48.63,783.35 
		100.75,765.64 270.5,767.39 270.5,779.89 237,883.89 	"/>
</g>
<g id="Layer_4" display="none">
	<g display="inline">
		<g>
			<path fill="#211F4C" d="M620.34,864.51c0.53-5.65-2.77-10.55-7.84-12.88c-1.16-0.53-2.18,1.19-1.01,1.73
				c4.49,2.06,7.32,6.13,6.85,11.15C618.22,865.79,620.22,865.78,620.34,864.51L620.34,864.51z"/>
		</g>
	</g>
	<g display="inline">
		<g>
			<path fill="#211F4C" d="M621.64,864.24c-1.13-3.62-1.35-7.67,1.75-10.38c0.97-0.85-0.45-2.26-1.41-1.41
				c-3.61,3.17-3.6,8.04-2.26,12.32C620.1,866,622.03,865.47,621.64,864.24L621.64,864.24z"/>
		</g>
	</g>
	<g display="inline">
		<g>
			<path fill="#211F4C" d="M624.98,866.24c-0.55-2.72,1.03-5.14,2.57-7.24c0.76-1.04-0.97-2.04-1.73-1.01
				c-1.91,2.61-3.45,5.47-2.77,8.78C623.31,868.04,625.24,867.5,624.98,866.24L624.98,866.24z"/>
		</g>
	</g>
	<g display="inline">
		<g>
			<path fill="#211F4C" d="M776.09,890.98c0.53-5.65-2.77-10.55-7.84-12.88c-1.16-0.53-2.18,1.19-1.01,1.73
				c4.49,2.06,7.32,6.13,6.85,11.15C773.97,892.27,775.97,892.26,776.09,890.98L776.09,890.98z"/>
		</g>
	</g>
	<g display="inline">
		<g>
			<path fill="#211F4C" d="M777.39,890.72c-1.13-3.62-1.35-7.67,1.75-10.38c0.97-0.85-0.45-2.26-1.41-1.41
				c-3.61,3.17-3.6,8.04-2.26,12.32C775.84,892.48,777.78,891.95,777.39,890.72L777.39,890.72z"/>
		</g>
	</g>
	<g display="inline">
		<g>
			<path fill="#211F4C" d="M780.73,892.72c-0.55-2.72,1.03-5.14,2.57-7.24c0.76-1.04-0.97-2.04-1.73-1.01
				c-1.91,2.61-3.45,5.47-2.77,8.78C779.06,894.52,780.98,893.98,780.73,892.72L780.73,892.72z"/>
		</g>
	</g>
	<g display="inline">
		<g>
			<path fill="#211F4C" d="M660.33,815.9c0.53-5.65-2.77-10.55-7.84-12.88c-1.16-0.53-2.18,1.19-1.01,1.73
				c4.49,2.06,7.32,6.13,6.85,11.15C658.21,817.19,660.22,817.18,660.33,815.9L660.33,815.9z"/>
		</g>
	</g>
	<g display="inline">
		<g>
			<path fill="#211F4C" d="M661.63,815.64c-1.13-3.62-1.35-7.67,1.75-10.38c0.97-0.85-0.45-2.26-1.41-1.41
				c-3.61,3.17-3.6,8.04-2.26,12.32C660.09,817.4,662.02,816.87,661.63,815.64L661.63,815.64z"/>
		</g>
	</g>
	<g display="inline">
		<g>
			<path fill="#211F4C" d="M664.97,817.64c-0.55-2.72,1.03-5.14,2.57-7.24c0.76-1.04-0.97-2.04-1.73-1.01
				c-1.91,2.61-3.45,5.47-2.77,8.78C663.3,819.44,665.23,818.9,664.97,817.64L664.97,817.64z"/>
		</g>
	</g>
	<g display="inline">
		<g>
			<path fill="#211F4C" d="M846.1,867.51c0.53-5.65-2.77-10.55-7.84-12.88c-1.16-0.53-2.18,1.19-1.01,1.73
				c4.49,2.06,7.32,6.13,6.85,11.15C843.98,868.79,845.98,868.78,846.1,867.51L846.1,867.51z"/>
		</g>
	</g>
	<g display="inline">
		<g>
			<path fill="#211F4C" d="M847.39,867.24c-1.13-3.62-1.35-7.67,1.75-10.38c0.97-0.85-0.45-2.26-1.41-1.41
				c-3.61,3.17-3.6,8.04-2.26,12.32C845.85,869,847.78,868.48,847.39,867.24L847.39,867.24z"/>
		</g>
	</g>
	<g display="inline">
		<g>
			<path fill="#211F4C" d="M850.73,869.24c-0.55-2.72,1.03-5.14,2.57-7.24c0.76-1.04-0.97-2.04-1.73-1.01
				c-1.91,2.61-3.45,5.47-2.77,8.78C849.06,871.04,850.99,870.5,850.73,869.24L850.73,869.24z"/>
		</g>
	</g>
	<g display="inline">
		<g>
			<path fill="#211F4C" d="M682.51,904.94c-2.02-4.54-4.43-9.14-9.5-10.69c-1.24-0.38-1.76,1.55-0.53,1.93
				c4.51,1.38,6.53,5.79,8.3,9.78C681.3,907.13,683.03,906.11,682.51,904.94L682.51,904.94z"/>
		</g>
	</g>
	<g display="inline">
		<g>
			<path fill="#211F4C" d="M683.5,905.63c-1.18-4.54,1.01-9.28,4.88-11.78c1.08-0.7,0.08-2.43-1.01-1.73
				c-4.63,2.99-7.21,8.61-5.8,14.03C681.89,907.4,683.82,906.87,683.5,905.63L683.5,905.63z"/>
		</g>
	</g>
	<g display="inline">
		<g>
			<path fill="#211F4C" d="M686.65,905.89c0.07-3.33,1.29-7,4.61-8.38c1.17-0.49,0.66-2.43-0.53-1.93
				c-4.2,1.75-5.99,5.96-6.07,10.31C684.62,907.18,686.62,907.18,686.65,905.89L686.65,905.89z"/>
		</g>
	</g>
	<g display="inline">
		<g>
			<path fill="#211F4C" d="M686.65,903.22c-0.08-3.31-1.4-6.14-3.41-8.72c-0.79-1.02-2.2,0.41-1.41,1.41
				c1.67,2.14,2.75,4.56,2.82,7.3C684.68,904.51,686.68,904.51,686.65,903.22L686.65,903.22z"/>
		</g>
	</g>
	<g display="inline">
		<g>
			<path fill="#211F4C" d="M687.95,904.82c1.34-3.35,4.2-5.5,7.76-5.98c1.27-0.17,0.73-2.1-0.53-1.93
				c-4.29,0.58-7.57,3.41-9.15,7.37C685.54,905.49,687.47,906,687.95,904.82L687.95,904.82z"/>
		</g>
	</g>
	<g display="inline">
		<g>
			<path fill="#211F4C" d="M739.57,852.21c-2.02-4.54-4.43-9.14-9.5-10.69c-1.24-0.38-1.76,1.55-0.53,1.93
				c4.51,1.38,6.53,5.79,8.3,9.78C738.36,854.39,740.09,853.37,739.57,852.21L739.57,852.21z"/>
		</g>
	</g>
	<g display="inline">
		<g>
			<path fill="#211F4C" d="M740.56,852.89c-1.18-4.54,1.01-9.28,4.88-11.78c1.08-0.7,0.08-2.43-1.01-1.73
				c-4.63,2.99-7.21,8.61-5.8,14.03C738.95,854.67,740.88,854.14,740.56,852.89L740.56,852.89z"/>
		</g>
	</g>
	<g display="inline">
		<g>
			<path fill="#211F4C" d="M743.71,853.16c0.07-3.33,1.29-7,4.61-8.38c1.17-0.49,0.66-2.43-0.53-1.93
				c-4.2,1.75-5.99,5.96-6.07,10.31C741.68,854.45,743.68,854.45,743.71,853.16L743.71,853.16z"/>
		</g>
	</g>
	<g display="inline">
		<g>
			<path fill="#211F4C" d="M743.71,850.49c-0.08-3.31-1.4-6.14-3.41-8.72c-0.79-1.02-2.2,0.41-1.41,1.41
				c1.67,2.14,2.75,4.56,2.82,7.3C741.74,851.77,743.74,851.78,743.71,850.49L743.71,850.49z"/>
		</g>
	</g>
	<g display="inline">
		<g>
			<path fill="#211F4C" d="M745.01,852.09c1.34-3.35,4.2-5.5,7.76-5.98c1.27-0.17,0.73-2.1-0.53-1.93
				c-4.29,0.58-7.57,3.41-9.15,7.37C742.6,852.76,744.53,853.27,745.01,852.09L745.01,852.09z"/>
		</g>
	</g>
	<g display="inline">
		<g>
			<path fill="#211F4C" d="M549.92,802.94c-2.02-4.54-4.43-9.14-9.5-10.69c-1.24-0.38-1.76,1.55-0.53,1.93
				c4.51,1.38,6.53,5.79,8.3,9.78C548.71,805.13,550.44,804.11,549.92,802.94L549.92,802.94z"/>
		</g>
	</g>
	<g display="inline">
		<g>
			<path fill="#211F4C" d="M550.91,803.62c-1.18-4.54,1.01-9.28,4.88-11.78c1.08-0.7,0.08-2.43-1.01-1.73
				c-4.63,2.99-7.21,8.61-5.8,14.03C549.3,805.4,551.23,804.87,550.91,803.62L550.91,803.62z"/>
		</g>
	</g>
	<g display="inline">
		<g>
			<path fill="#211F4C" d="M554.06,803.89c0.07-3.33,1.29-7,4.61-8.38c1.17-0.49,0.66-2.43-0.53-1.93
				c-4.2,1.75-5.99,5.96-6.07,10.31C552.03,805.18,554.03,805.18,554.06,803.89L554.06,803.89z"/>
		</g>
	</g>
	<g display="inline">
		<g>
			<path fill="#211F4C" d="M554.06,801.22c-0.08-3.31-1.4-6.14-3.41-8.72c-0.79-1.02-2.2,0.41-1.41,1.41
				c1.67,2.14,2.75,4.56,2.82,7.3C552.09,802.51,554.09,802.51,554.06,801.22L554.06,801.22z"/>
		</g>
	</g>
	<g display="inline">
		<g>
			<path fill="#211F4C" d="M555.36,802.82c1.34-3.35,4.2-5.5,7.76-5.98c1.27-0.17,0.73-2.1-0.53-1.93
				c-4.29,0.58-7.57,3.41-9.15,7.37C552.95,803.49,554.88,804,555.36,802.82L555.36,802.82z"/>
		</g>
	</g>
</g>
<g>
	<g id="Layer_5">
		<g>
			<g>
				<polygon fill="#010D0B" points="231.84,658.29 206.11,658.29 206.11,654.29 231.98,654.29 				"/>
			</g>
		</g>
		<g>
			<g>
				
					<rect x="200.13" y="654.55" transform="matrix(0.9933 0.1157 -0.1157 0.9933 81.0953 -18.7635)" fill="#010D0B" width="4" height="68.81"/>
			</g>
		</g>
		<g>
			<g>
				
					<rect x="226.62" y="654.75" transform="matrix(0.9992 0.0395 -0.0395 0.9992 27.4262 -8.5027)" fill="#010D0B" width="4" height="68.4"/>
			</g>
		</g>
		<g>
			<g>
				<rect x="198.14" y="719.62" fill="#010D0B" width="29.13" height="4"/>
			</g>
		</g>
		<g>
			<g>
				<rect x="205.72" y="656.23" fill="#010D0B" width="25.17" height="4"/>
			</g>
		</g>
		<g>
			<g>
				<polygon fill="#010D0B" points="439.31,723.35 423.89,660.79 426.99,656.65 443.19,722.4 				"/>
			</g>
		</g>
		<g>
			<g>
				
					<rect x="377.07" y="691.04" transform="matrix(0.1953 0.9808 -0.9808 0.1953 1008.6609 156.8146)" fill="#010D0B" width="63.41" height="4"/>
			</g>
		</g>
		<g>
			<g>
				<rect x="401.57" y="659.94" fill="#010D0B" width="25.42" height="4"/>
			</g>
		</g>
		<g>
			<g>
				<rect x="401.57" y="659.19" fill="#010D0B" width="25.42" height="4"/>
			</g>
		</g>
		<g>
			<g>
				<polygon fill="#010D0B" points="426.99,662.44 400.62,662.33 399.76,658.44 426.99,658.44 				"/>
			</g>
		</g>
		<g>
			<g>
				<rect x="413.45" y="720.78" fill="#010D0B" width="29.06" height="4"/>
			</g>
		</g>
		<g>
			<g>
				<rect x="230.41" y="667.23" fill="#010D0B" width="173.59" height="7.38"/>
			</g>
		</g>
		<g>
			<g>
				<rect x="230.41" y="678.41" fill="#010D0B" width="175.64" height="6.53"/>
			</g>
		</g>
		<g>
			<g>
				<rect x="229.2" y="688.77" fill="#010D0B" width="179.95" height="7.09"/>
			</g>
		</g>
		<g>
			<g>
				<rect x="227.96" y="700.08" fill="#010D0B" width="183.82" height="6.72"/>
			</g>
		</g>
		<g>
			<g>
				<rect x="227.96" y="710.07" fill="#010D0B" width="185.54" height="5.77"/>
			</g>
		</g>
	</g>
	<g id="Layer_3">
		<g>
			<g>
				
					<rect x="136.69" y="128.94" transform="matrix(0.9981 0.0615 -0.0615 0.9981 11.2225 -8.1954)" fill="#010D0B" width="4" height="98.37"/>
			</g>
		</g>
		<g>
			<g>
				<polygon fill="#010D0B" points="140.05,131.98 139.72,128.92 182.57,122.26 183.1,126.23 				"/>
			</g>
		</g>
		<g>
			<g>
				<polygon fill="#010D0B" points="183.1,126.23 179.7,126.19 183.09,74.29 187.08,74.55 				"/>
			</g>
		</g>
		<g>
			<g>
				<polygon fill="#010D0B" points="183.43,76.4 183.08,73.9 220.63,67.17 221.18,71.13 				"/>
			</g>
		</g>
		<g>
			<g>
				<polygon fill="#010D0B" points="221.18,71.13 217.78,70.94 220.84,22.23 224.83,22.48 				"/>
			</g>
		</g>
		<g>
			<g>
				<polygon fill="#010D0B" points="220.77,23.37 220.56,19.43 305.47,4.59 305.27,8.99 				"/>
			</g>
		</g>
		<g>
			<g>
				<polygon fill="#010D0B" points="281.53,442.4 277.54,440.48 301.46,5.35 305.47,5.22 				"/>
			</g>
		</g>
		<g>
			<g>
				<polygon fill="#010D0B" points="275.68,561.22 114.4,546.84 116.33,513.94 157.14,513.94 157.77,492.22 204.04,492.22 
					203.72,471.78 233.28,471.78 233.92,438.56 281.82,438.56 				"/>
			</g>
		</g>
		<g>
			<g>
				
					<rect x="120.36" y="349.65" transform="matrix(0.9987 0.0513 -0.0513 0.9987 22.3447 -5.7036)" fill="#010D0B" width="4" height="166.17"/>
			</g>
		</g>
		<g>
			<g>
				<polygon fill="#010D0B" points="225.18,156.36 211.83,169.64 198.49,156.36 211.83,143.09 				"/>
			</g>
		</g>
		<g>
			<g>
				<polygon fill="#010D0B" points="225.18,224.23 211.83,237.5 198.49,224.23 211.83,210.95 				"/>
			</g>
		</g>
		<g>
			<g>
				<polygon fill="#010D0B" points="221.32,295.77 207.98,309.05 194.64,295.77 207.98,282.51 				"/>
			</g>
		</g>
		<g>
			<g>
				<polygon fill="#010D0B" points="221.3,363.03 205.08,379.15 188.88,363.03 205.08,346.91 				"/>
			</g>
		</g>
		<g>
			<g>
				<polygon fill="#010D0B" points="218.05,432.92 202.2,448.67 186.35,432.92 202.2,417.16 				"/>
			</g>
		</g>
		<g>
			<g>
				<polygon fill="#010D0B" points="269.82,27.05 269.82,23.09 302.32,18.46 302.88,22.42 				"/>
			</g>
		</g>
		<g>
			<g>
				<rect x="269.82" y="23.71" fill="#010D0B" width="4" height="47.35"/>
			</g>
		</g>
		<g>
			<g>
				<polygon fill="#010D0B" points="300.03,71.15 270.95,71.07 271.82,67.15 300.03,67.15 				"/>
			</g>
		</g>
		<g>
			<g>
				
					<rect x="271.82" y="35.78" transform="matrix(0.9998 0.0174 -0.0174 0.9998 0.6989 -4.9706)" fill="#010D0B" width="29.88" height="4"/>
			</g>
		</g>
		<g>
			<g>
				
					<rect x="293.2" y="22.74" transform="matrix(0.9995 0.0325 -0.0325 0.9995 1.6204 -9.5611)" fill="#010D0B" width="4" height="44.74"/>
			</g>
		</g>
		<g>
			<g>
				
					<rect x="294.16" y="22.74" transform="matrix(0.9995 0.0325 -0.0325 0.9995 1.6209 -9.5925)" fill="#010D0B" width="4" height="44.74"/>
			</g>
		</g>
		<g>
			<g>
				
					<rect x="295.13" y="22.74" transform="matrix(0.9995 0.0325 -0.0325 0.9995 1.6214 -9.6238)" fill="#010D0B" width="4" height="44.74"/>
			</g>
		</g>
		<g>
			<g>
				
					<rect x="296.09" y="22.74" transform="matrix(0.9995 0.0322 -0.0322 0.9995 1.6086 -9.5828)" fill="#010D0B" width="4" height="44.74"/>
			</g>
		</g>
		<g>
			<g>
				
					<rect x="296.09" y="21.79" transform="matrix(0.9995 0.0322 -0.0322 0.9995 1.5777 -9.5833)" fill="#010D0B" width="4" height="44.74"/>
			</g>
		</g>
		<g>
			<g>
				<polygon fill="#010D0B" points="267.66,118.47 269.3,113.89 297.5,108.81 298.21,112.75 				"/>
			</g>
		</g>
		<g>
			<g>
				<polygon fill="#010D0B" points="271.66,117.09 267.66,118.47 267.66,88.07 271.66,88.07 				"/>
			</g>
		</g>
		<g>
			<g>
				
					<rect x="288.39" y="85.68" transform="matrix(0.9998 0.0173 -0.0173 0.9998 1.7585 -5.0193)" fill="#010D0B" width="4" height="26.49"/>
			</g>
		</g>
		<g>
			<g>
				<polygon fill="#010D0B" points="267.66,90.06 267.54,86.08 292.62,83.69 292.59,87.67 				"/>
			</g>
		</g>
		<g>
			<g>
				<g>
					<path fill="#010D0B" d="M214.86,125.6c-5.19-1.52-8.62-2.9-11.63-7.66c-2.83-4.47-3.56-10.31-3.48-15.48
						c0.15-10.23,7.74-16.34,17.87-13.65c7.71,2.05,9.71,12.6,9.8,19.32c0.05,3.45-0.7,6.88-2.18,9.99
						c-1.86,3.92-7.99,9.29-12.8,6.62c-1.09-0.61-2.06,1.05-0.97,1.66c9.08,5.04,16.59-7.47,17.63-14.7
						c1.15-8-1.16-21.21-9.95-24.37c-10-3.6-19.32,1.58-21.01,11.87c-1.01,6.2,0.14,12.75,2.74,18.43c2.8,6.13,7.42,8.05,13.48,9.83
						C215.54,127.79,216.05,125.94,214.86,125.6L214.86,125.6z"/>
				</g>
			</g>
		</g>
		<g>
			<g>
				<g>
					<path fill="#010D0B" d="M220.73,120.57c-7.58,1.58-8.14-6.98-8.47-12.35c-0.29-4.74,0.44-13.48,7.39-11.74
						c8.99,2.25,8.55,20.76,0.97,24.18c-1.13,0.51-0.15,2.16,0.97,1.65c10.46-4.71,8.41-28.06-4.29-28.01
						c-7.29,0.02-7.17,10.9-6.85,15.71c0.44,6.68,2.62,14.1,10.79,12.4C222.46,122.16,221.95,120.31,220.73,120.57L220.73,120.57z"
						/>
				</g>
			</g>
		</g>
		<g>
			<g>
				<g>
					<path fill="#010D0B" d="M206.53,108.79c6.71-0.1,13.41,0.1,20.12,0.12c1.24,0,1.24-1.91,0-1.91
						c-6.7-0.02-13.41-0.22-20.12-0.12C205.29,106.9,205.29,108.81,206.53,108.79L206.53,108.79z"/>
				</g>
			</g>
		</g>
		<g>
			<g>
				<g>
					<path fill="#010D0B" d="M215.45,126.05c2.39,0.15,6.03-1.12,7.33-3.23c0.41-0.65-0.13-1.4-0.83-1.44
						c-2.41-0.14-4.86,1.19-6.99,2.17c0.33,0.55,0.65,1.1,0.97,1.66c0.38-0.25,1.15-0.97,1.68-0.72c-0.07-0.5-0.13-1-0.2-1.51
						c-0.45,0.54-1.11,0.76-1.77,0.94c-0.72,0.2-0.6-0.11-0.16,0.07c0.06-0.1,0.13-0.21,0.19-0.31c-0.82,0.56-1.22,0.47-1.19-0.26
						c-0.31-0.23-0.62-0.47-0.93-0.7c0.34,1.48-0.5,1.17-1.19,0.54c-0.55-0.49-0.7-0.63-0.16-0.71c-0.39-0.22-0.79-0.45-1.19-0.67
						c0.11-0.21,0.21-0.42,0.32-0.62c-0.26-0.41-0.88-0.65-1.32-0.34c-1.35,0.95-1.45,2.03-0.43,3.3c0.78,0.97,2.13-0.4,1.37-1.36
						c0.02-0.1,0.03-0.19,0.05-0.29c-0.44-0.11-0.88-0.23-1.32-0.34c1.12,1.73,3.75,1.57,3.21-0.86c-0.12-0.56-0.69-0.74-1.19-0.67
						c-2.59,0.39-1.82,3.11-0.26,4.28c1.89,1.43,4.75,0.41,4.26-2.3c-0.56-3.06-4.73-2.12-3.83,0.73c0.81,2.55,4.11,1.25,3.55-1.21
						c-0.1-0.42-0.51-0.7-0.93-0.7c-4.5,0.01-1.36,6.52,2.43,3.64c3.39-2.58-4.83-4.7-3.48-1.1c0.52,1.39,2.57,1.77,3.4,0.33
						c0.88-1.5-0.66-2.97-2.22-2.28c-1.51,0.66-2.1,2.58-0.58,3.58c1.31,0.86,3.88-0.27,4.75-1.32c0.36-0.44,0.41-1.21-0.2-1.51
						c-1.45-0.69-2.34-0.1-3.62,0.72c-1.06,0.67-0.14,2.17,0.97,1.66c1.82-0.83,3.96-2.02,6.02-1.91c-0.28-0.48-0.56-0.96-0.83-1.44
						c-0.95,1.52-3.98,2.38-5.67,2.28C214.2,124.05,214.21,125.97,215.45,126.05L215.45,126.05z"/>
				</g>
			</g>
		</g>
		<g>
			<g>
				<g>
					<path fill="#010D0B" d="M210.88,122.72c-1.12-0.33-2.13-0.85-3.03-1.58c0,0.55,0,1.1,0,1.65c2.93-1.28,5.73-0.18,8.54,0.69
						c0.17-0.61,0.34-1.23,0.52-1.85c-3.82-0.66-6.25-3.65-6.53-7.46c-0.6,0.16-1.19,0.32-1.8,0.49c1.27,1.88,2.29,3.88,3.38,5.87
						c0.52,0.94,2.17,0.28,1.76-0.74c-2.18-5.48-3.8-10.94-3.94-16.88c-0.03-1.24-1.95-1.24-1.93,0c0.14,6.09,1.77,11.74,4.01,17.38
						c0.59-0.25,1.18-0.49,1.76-0.74c-1.09-1.99-2.1-3.99-3.38-5.87c-0.49-0.73-1.87-0.53-1.8,0.49c0.34,4.59,3.25,8.5,7.94,9.31
						c1.21,0.21,1.72-1.48,0.52-1.85c-3.47-1.08-6.57-2.02-10.02-0.5c-0.72,0.32-0.52,1.29,0,1.65c1.16,0.81,2.15,1.34,3.48,1.77
						C211.55,124.96,212.06,123.11,210.88,122.72L210.88,122.72z"/>
				</g>
			</g>
		</g>
		<g>
			<g>
				<g>
					<path fill="#010D0B" d="M211.35,119.22c-0.24,0.01-3.25-0.03-3.25,0.24c0.55-0.22,1.1-0.45,1.64-0.68
						c-0.94-0.91-1.26-1.99-0.96-3.26c-0.59,0.08-1.18,0.15-1.76,0.23c0.5,0.94,0.79,1.95,0.87,3.03c-0.34-0.81-0.23-2.27-0.07-3.14
						c-0.62,0-1.24,0-1.86,0c0.68,1.89,0.16,3.8,0.2,5.73c0.41-0.31,0.81-0.61,1.22-0.93c-2.39-0.66-3.26-5.73-3.84-7.91
						c-1.07-4.04-1.5-9.68,1.5-13.01c-0.54-0.14-1.07-0.28-1.61-0.42c0.38,2.76,0.06,5.46,0.02,8.22c-0.03,2.6,1.86,5.37,0.83,7.93
						c0.54-0.14,1.07-0.28,1.61-0.42c-2.61-2.31-0.91-8.45-1.04-11.54c-0.04-1.01-1.23-1.23-1.8-0.49
						c-1.55,2.03-1.96,3.69-1.55,6.17c0.2,1.16,0.84,2.32,1.32,3.38c0.47,1.05,1.16,4.32,1.64,4.99c-1.49-2.07-2.08-4.75-2.6-7.17
						c-0.76-3.55-2.22-12.06,1.41-14.68c-0.47-0.19-0.94-0.38-1.41-0.57c0.54,2.83-1.07,5.59-1.36,8.37c-0.13,1.23,1.8,1.22,1.93,0
						c0.33-3.15,1.91-5.68,1.29-8.88c-0.11-0.57-0.93-0.92-1.41-0.57c-6.38,4.6-2.88,18.75,0.49,24.47c0.6,1,2.38,2.31,3.04,0.58
						c2.12-5.47-5.25-9.68-1.14-15.12c-0.6-0.16-1.19-0.33-1.8-0.49c0.16,3.8-1.68,9.99,1.61,12.9c0.58,0.52,1.33,0.25,1.61-0.42
						c0.81-1.99,0.38-3.27-0.24-5.3c-1.18-3.81-0.07-7.94-0.6-11.86c-0.1-0.72-1.17-0.92-1.61-0.42c-3.39,3.76-3.06,9.15-2.23,13.81
						c0.55,3.1,1.87,9.33,5.43,10.31c0.6,0.17,1.23-0.3,1.22-0.93c-0.04-2.15,0.47-4.17-0.28-6.25c-0.29-0.81-1.69-1.01-1.86,0
						c-0.2,1.12-0.64,6.01,1.62,5.81c3.05-0.27,2.13-4.32,1.1-6.16c-0.38-0.67-1.63-0.61-1.76,0.23c-0.32,2.02,0.07,3.6,1.45,5.12
						c0.58,0.64,1.64,0.12,1.64-0.68c0.02-1.66-0.52-3.28-2.38-3.35c-0.34-0.02-0.66,0.19-0.83,0.47c-0.54,0.89-0.62,1-0.68,1.96
						c-0.02,0.31,0.19,0.69,0.47,0.83c3.13,1.52,4.1-4.94,0.15-5.23c-2.4-0.18-2.02,3.7-1.63,4.91c0.83,2.5,4.22,2.15,6.22,2.1
						C212.59,121.1,212.59,119.19,211.35,119.22L211.35,119.22z"/>
				</g>
			</g>
		</g>
		<g>
			<g>
				<g>
					<path fill="#010D0B" d="M201.59,103.16c0.1-2.18,0.52-4.89,2.13-6.51c-0.55-0.22-1.1-0.45-1.64-0.68
						c0.39,3.08-2.19,6.76,0.52,9.3c0.47,0.44,1.16,0.33,1.51-0.19c1.31-1.94,1.23-4.53,0.7-6.72c-0.24-1-1.55-0.83-1.86,0
						c-0.55,1.44-0.6,2.68-0.39,4.2c0.12,0.93,1.23,1.33,1.8,0.49c1.4-2.08,1.66-4.38,2.03-6.82c-0.62,0-1.24,0-1.86,0
						c0.86,3.07,0.15,6.21,0.56,9.32c0.16,1.19,1.91,1.28,1.93,0c0.02-1.91-0.19-3.72,0.33-5.62c-0.59,0.08-1.18,0.15-1.76,0.23
						c1.86,2.69,2.69,8.13,1.2,11.13c0.56,0,1.11,0,1.66,0c-0.85-1.81-0.79-3.82-0.38-5.73c-0.54,0.14-1.07,0.28-1.61,0.42
						c1.63,1.81,0.91,5.79-0.39,7.59c0.56,0,1.11,0,1.67,0c-1.54-2.06-1.26-5.38,0-7.54c-0.56,0-1.11,0-1.67,0
						c1.05,2.42,0.4,5.28,0.11,7.79c0.6-0.16,1.19-0.32,1.8-0.49c-0.57-0.77-0.92-1.74-1.26-2.62c-0.42-1.07-0.46-3.17-1.04-4
						c1.44,2.08,1.64,6.67,1.26,9.13c0.59-0.08,1.18-0.15,1.76-0.23c-1.18-1.93-0.39-4.25,0.48-6.1c-0.59-0.08-1.18-0.15-1.76-0.23
						c0.59,1.93,0.83,3.84,0.57,5.85c0.63-0.09,1.26-0.17,1.9-0.25c-0.44-1.06-0.63-2.18-0.56-3.34c-0.05-1.23-1.98-1.24-1.93,0
						c0.06,1.36,0.21,2.54,0.64,3.85c0.35,1.09,1.76,0.78,1.9-0.26c0.29-2.18,0-4.28-0.64-6.37c-0.22-0.73-1.39-1.02-1.76-0.23
						c-1.2,2.52-2.03,5.5-0.48,8.03c0.39,0.65,1.63,0.64,1.76-0.23c0.4-2.58,0.5-10.8-2.85-11.72c-4.22-1.16-0.52,8.5,0.36,9.68
						c0.59,0.79,1.68,0.49,1.8-0.49c0.35-2.98,0.85-5.92-0.38-8.75c-0.29-0.69-1.33-0.57-1.67,0c-1.58,2.7-1.95,6.87,0,9.48
						c0.45,0.61,1.22,0.61,1.67,0c1.86-2.56,2.31-7.45,0.09-9.91c-0.47-0.52-1.46-0.27-1.61,0.42c-0.52,2.46-0.51,4.91,0.58,7.21
						c0.3,0.64,1.36,0.61,1.66,0c1.79-3.61,1.07-9.79-1.2-13.07c-0.46-0.66-1.53-0.62-1.76,0.23c-0.56,2.04-0.37,4.03-0.39,6.13
						c0.65,0,1.28,0,1.93,0c-0.44-3.29,0.27-6.6-0.64-9.83c-0.24-0.85-1.71-0.98-1.86,0c-0.34,2.27-0.51,4.39-1.83,6.36
						c0.6,0.16,1.19,0.33,1.8,0.49c-0.17-1.31-0.15-2.46,0.33-3.7c-0.62,0-1.24,0-1.86,0c0.41,1.71,0.52,3.72-0.51,5.25
						c0.51-0.06,1.01-0.13,1.51-0.19c-1.83-1.72,0.33-5.7,0.04-7.94c-0.1-0.78-1-1.33-1.64-0.68c-2,2.02-2.58,5.13-2.69,7.87
						C199.61,104.4,201.54,104.4,201.59,103.16L201.59,103.16z"/>
				</g>
			</g>
		</g>
		<g>
			<g>
				<g>
					<path fill="#010D0B" d="M206.41,102.8c-0.11,1.28-0.47,2.29-0.93,3.46c0.62,0,1.24,0,1.86,0c-0.57-3.1-0.25-7.11,1.71-9.68
						c-0.59-0.08-1.18-0.15-1.76-0.23c0.63,1.79,0.54,3.53,0.33,5.38c-0.13,1.12,1.59,1.24,1.9,0.26c0.55-1.74,0.99-3.5,1.45-5.27
						c-0.63-0.09-1.26-0.17-1.9-0.26c0.17,1.42-0.08,2.69-0.45,4.06c-0.33,1.21,1.43,1.65,1.86,0.51c0.33-0.87,0.59-1.74,0.84-2.63
						c-0.62-0.17-1.24-0.34-1.86-0.51c-0.68,3.12-1.05,6.17-0.87,9.36c0.07,1.14,1.48,1.23,1.9,0.25c0.74-1.77,0.89-3.53,0.99-5.42
						c0.16-3.03,0.89-5.31,2.29-8.01c0.38-0.73-0.24-1.64-1.09-1.41c-2.31,0.64-3.28,2.53-5.17,3.81c0.44,0.44,0.88,0.88,1.32,1.31
						c0.82-1.22,1.72-1.95,2.91-2.77c-0.47-0.36-0.94-0.72-1.42-1.08c-0.42,0.37-0.83,0.75-1.25,1.12c0.36,0.47,0.73,0.94,1.09,1.41
						c0.17-0.44,0.41-0.85,0.72-1.2c-0.59-0.25-1.18-0.49-1.76-0.74c-0.53,1.3-1.29,3.09-2.7,3.65c0.39,0.22,0.79,0.45,1.19,0.67
						c0.42-0.88,0.83-1.75,1.24-2.63c-0.47-0.19-0.94-0.38-1.42-0.57c-0.49,0.72-0.99,1.44-1.49,2.15c0.44,0.11,0.88,0.23,1.32,0.34
						c-0.66-1.49-0.34-3.26,0.36-4.67c-0.6-0.16-1.19-0.32-1.8-0.49c0.06,1.36-0.5,3.18-1.69,3.96c0.44,0.11,0.88,0.23,1.32,0.34
						c-0.52-0.87-0.59-1.79-0.24-2.74c-0.59-0.25-1.18-0.49-1.76-0.74c-0.04,0.73-0.25,1.41-0.62,2.05
						c-0.46,0.99,0.66,1.9,1.51,1.16c0.5-0.38,0.94-0.82,1.33-1.32c0.37-0.41,0.36-0.94,0-1.36c-0.72-0.82-1.26-1.27-2.36-1.44
						c0.19,0.47,0.38,0.94,0.57,1.41c0.54-1.2,2.53-1.75,3.38-2.87c0.5-0.67-0.33-1.68-1.09-1.41c-1.38,0.49-4.49,2.78-2.69,4.52
						c2.01,1.94,4.1,0.29,4.48-2.15c0.11-0.66-0.26-1.14-0.93-1.21c-1.28-0.14-1.83,0.42-2.52,1.44c0.56,0.33,1.11,0.65,1.67,0.97
						c0.6-1.32,1.63-1.59,3.08-0.77c-0.47,0.58-1.1,1.02-1.75,1.38c0.47,0.19,0.94,0.38,1.41,0.57c-0.35-1.75,0.74-2.76,1.92-3.74
						c-0.51-0.06-1.01-0.13-1.51-0.19c-0.2,0.61-0.65,0.95-1.35,0.99c-1.15,0.42-0.66,2.27,0.52,1.85c0.86-0.31,1.69-0.66,2.52-1.05
						c-0.44-0.11-0.88-0.23-1.32-0.34c0.01-0.01,0.02-0.02,0.02-0.02c-0.22,1.2,1.64,1.72,1.86,0.51c0.11-0.62,0.12-0.91-0.22-1.46
						c-0.29-0.47-0.83-0.57-1.32-0.34c-0.66,0.34-1.35,0.62-2.06,0.86c0.17,0.61,0.34,1.23,0.52,1.85c1.85-0.69,3.83-1.69,2.5-3.81
						c-0.35-0.56-1.03-0.59-1.51-0.19c-1.83,1.51-2.89,3.24-2.42,5.6c0.12,0.62,0.9,0.85,1.41,0.57c1.77-0.97,4.12-3.07,2.98-5.24
						c-1.56-2.97-5.94,0.49-6.95,2.01c-0.69,1.04,0.97,1.99,1.67,0.97c0.29-0.16,0.57-0.33,0.85-0.49
						c-0.31-0.41-0.62-0.81-0.93-1.21c-0.25,0.77-0.05,0.77,0.58-0.02c-0.36-0.47-0.73-0.94-1.09-1.41
						c-0.96,1.3-2.68,1.34-3.38,2.87c-0.23,0.5-0.1,1.3,0.57,1.41c0.5,0.32,1.01,0.63,1.5,0.95c0-0.46,0-0.9,0-1.36
						c-0.38,0.5-0.83,0.94-1.32,1.32c0.51,0.38,1.01,0.77,1.51,1.16c0.39-0.85,0.69-1.58,0.82-2.5c0.15-1.02-1.16-1.74-1.76-0.74
						c-0.93,1.54-0.42,3.11,0.24,4.68c0.2,0.46,0.92,0.61,1.32,0.34c1.76-1.16,2.75-3.56,2.65-5.62c-0.04-0.89-1.34-1.39-1.8-0.49
						c-1.05,2.09-1.32,4.43-0.36,6.6c0.22,0.49,0.9,0.57,1.32,0.34c1.83-0.96,2.85-2.25,2.37-4.32c-0.15-0.64-0.88-0.84-1.41-0.57
						c-1.88,0.92-2.62,2.81-2.13,4.79c0.11,0.46,0.7,0.86,1.19,0.67c2.16-0.85,3.2-2.93,4.05-4.98c0.44-1.08-1.17-1.55-1.76-0.74
						c-0.31,0.36-0.56,0.76-0.72,1.2c-0.34,0.69,0.22,1.72,1.09,1.41c1.32-0.49,2.31-1.03,2.6-2.46c0.16-0.75-0.66-1.6-1.41-1.08
						c-1.42,0.98-2.63,2.02-3.6,3.45c-0.53,0.79,0.52,1.85,1.32,1.31c1.64-1.11,2.72-3.07,4.71-3.61c-0.36-0.47-0.73-0.94-1.09-1.41
						c-1.1,2.13-2.01,4.2-2.39,6.58c-0.39,2.49-0.07,4.92-1.09,7.31c0.63,0.09,1.26,0.17,1.9,0.25c-0.16-3.01,0.16-5.89,0.81-8.85
						c0.26-1.2-1.52-1.71-1.86-0.51c-0.25,0.89-0.51,1.76-0.84,2.63c0.62,0.17,1.24,0.34,1.86,0.51c0.42-1.58,0.72-2.94,0.52-4.57
						c-0.12-1-1.6-1.38-1.89-0.25c-0.46,1.76-0.9,3.53-1.45,5.27c0.63,0.09,1.26,0.17,1.89,0.25c0.24-2.03,0.29-3.94-0.39-5.89
						c-0.29-0.84-1.25-0.89-1.76-0.23c-2.27,2.98-2.56,7.6-1.91,11.16c0.19,1.03,1.55,0.79,1.86,0c0.52-1.33,0.87-2.55,1-3.96
						C208.45,101.58,206.52,101.58,206.41,102.8L206.41,102.8z"/>
				</g>
			</g>
		</g>
		<g>
			<g>
				<g>
					<path fill="#010D0B" d="M207.13,99.46c0.11-0.03,0.22-0.06,0.33-0.09c0.23,0.1,0.46,0.18,0.68,0.28
						c0.11,0.66,0.19,0.82,0.25,0.47c0.04-0.17,0.1-0.33,0.16-0.5c0.1-0.29,0.21-0.57,0.29-0.86c0.28-0.85,0.46-1.66,0.93-2.43
						c0.65-1.05-1.01-2.02-1.66-0.97c-0.74,1.19-1.05,2.6-1.49,3.92c-0.37,1.08,0.08,2.46,1.48,1.83
						C209.23,100.6,208.25,98.95,207.13,99.46L207.13,99.46z"/>
				</g>
			</g>
		</g>
		<g>
			<g>
				<g>
					<path fill="#010D0B" d="M213.73,96.47c0.48-1.78,1.51-2.34,3.18-2.81c-0.25-0.58-0.5-1.16-0.74-1.75
						c-0.88,0.47-1.73,0.97-2.66,1.34c-1.13,0.45-0.68,2.27,0.52,1.85c1.12-0.39,2.73-1.3,3.95-1.08c-0.07-0.58-0.16-1.16-0.23-1.75
						c-0.24,0.16-0.48,0.32-0.72,0.48c-0.92,0.61-0.34,1.99,0.74,1.75c1.48-0.33,2.9-0.71,4.32,0.14c0.16-0.6,0.33-1.19,0.49-1.79
						c-1.1,0.02-2.15-0.18-3.24-0.33c-1.21-0.17-1.74,1.66-0.52,1.85c1.59,0.24,2.78,0.92,3.76,2.19c0.51-0.39,1.01-0.77,1.51-1.17
						c-1.51-1.43-3.12-2.66-5.26-2.8c-1.15-0.07-1.22,1.53-0.25,1.88c1.26,0.46,2.59,0.75,3.8,1.34c1.79,0.87,2.59,3.28,3.45,4.93
						c0.57,1.1,2.23,0.13,1.67-0.97c-0.96-1.85-1.78-3.7-3.38-5.1c-1.35-1.17-3.39-1.45-5.02-2.05c-0.08,0.63-0.17,1.25-0.25,1.88
						c1.6,0.1,2.8,1.2,3.9,2.23c0.76,0.72,2.2-0.27,1.51-1.16c-1.28-1.66-2.81-2.76-4.91-3.08c-0.17,0.61-0.34,1.23-0.52,1.85
						c1.26,0.18,2.48,0.41,3.75,0.39c0.96-0.02,1.31-1.29,0.49-1.79c-1.84-1.11-3.79-0.78-5.81-0.33c0.25,0.58,0.5,1.16,0.74,1.75
						c0.24-0.16,0.48-0.32,0.72-0.48c0.63-0.41,0.65-1.59-0.23-1.75c-1.71-0.31-3.38,0.53-4.97,1.08c0.17,0.61,0.34,1.23,0.52,1.85
						c1.09-0.44,2.08-0.98,3.12-1.53c0.97-0.52,0.3-2.04-0.74-1.75c-2.6,0.73-3.8,1.44-4.53,4.14
						C211.55,97.16,213.4,97.67,213.73,96.47L213.73,96.47z"/>
				</g>
			</g>
		</g>
		<g>
			<g>
				<g>
					<path fill="#010D0B" d="M225.45,95.27c-2.4-1.78-1.89-4.25-5.13-5.14c-2.32-0.64-4.69,0.03-6.52,1.46
						c-0.86,0.67,0.12,1.71,0.94,1.6c1.1-0.15,3.21-1.04,4.12-0.13c0.07-0.5,0.13-1,0.2-1.51c-1.78,1.08-3.65,1.91-5.67,2.42
						c0.41,0.31,0.81,0.61,1.22,0.93c0.35-0.53,0.7-1.07,1.05-1.6c0.8-0.69-0.08-1.75-0.94-1.6c-1.14,0.19-2.25,0.45-3.38,0.72
						c0.39,0.22,0.79,0.45,1.19,0.67c0.16-1.25,0.96-1.88,2.44-1.9c-0.16-0.6-0.33-1.19-0.49-1.79c-0.75,0.38-1.51,0.74-2.29,1.08
						c0.33,0.55,0.65,1.1,0.97,1.65c0.2-0.09,0.41-0.18,0.61-0.26c-0.39-0.39-0.79-0.79-1.19-1.18c-0.48,0.39-0.86,0.07-1.13-0.95
						c-0.14-0.28-0.52-0.5-0.83-0.47c-1.41,0.12-2.92,0.53-4.33,0.27c0.14,0.53,0.29,1.07,0.43,1.6c2.11-1.79,4.64-2.23,7.3-1.67
						c1.76,0.37,3.34,1.71,5.14,2.16c0.98,0.25,1.55-0.89,0.94-1.6c-1.64-1.92-4.14-1.96-6.48-1.56c0.17,0.61,0.34,1.23,0.52,1.85
						c1.99-0.54,3.76-0.48,5.64,0.38c0.07-0.58,0.16-1.16,0.23-1.75c-2.95,1.21-6.18-0.17-9.26,0.09c-1.23,0.1-1.24,2.02,0,1.91
						c3.3-0.27,6.6,1.14,9.77-0.15c0.68-0.28,1.08-1.36,0.23-1.75c-2.4-1.1-4.58-1.28-7.13-0.57c-1.22,0.33-0.69,2.06,0.52,1.85
						c1.64-0.28,3.39-0.35,4.6,1.07c0.31-0.53,0.62-1.07,0.94-1.6c-3.03-0.77-5.1-2.58-8.36-2.48c-2.22,0.06-4.29,1.08-5.95,2.49
						c-0.53,0.45-0.26,1.48,0.43,1.6c1.16,0.21,2.13,0.15,3.29-0.02c1.29-0.18,1.32,0.35,2.34,1.09c1.37,1.01,2.8,0.24,3.03-1.27
						c0.11-0.69-0.42-1.4-1.19-1.18c-0.44,0.13-0.69,0.22-1.07,0.45c-1.09,0.65-0.14,2.16,0.97,1.65c0.78-0.33,1.54-0.69,2.29-1.08
						c0.88-0.43,0.44-1.81-0.48-1.79c-2.42,0.06-4.72,1.79-4.3,4.32c0.09,0.53,0.72,0.78,1.19,0.67c1.12-0.27,2.23-0.53,3.38-0.72
						c-0.31-0.53-0.62-1.07-0.94-1.6c-1.07,0.93-1.66,1.52-1.61,2.95c0.02,0.63,0.6,1.08,1.22,0.93c2.19-0.56,4.21-1.44,6.13-2.62
						c0.53-0.32,0.64-1.06,0.2-1.51c-1.9-1.9-3.65-0.7-5.99-0.37c0.31,0.53,0.62,1.07,0.94,1.6c2.79-2.18,6.12-1.08,7.42,1.85
						c0.42,0.94,1.08,1.53,1.89,2.13C225.48,97.67,226.43,96,225.45,95.27L225.45,95.27z"/>
				</g>
			</g>
		</g>
		<g>
			<g>
				<polygon fill="#010D0B" points="327.59,302.88 291.81,299.68 292.17,295.7 327.98,299.29 				"/>
			</g>
		</g>
		<g>
			<g>
				
					<rect x="323.32" y="300.88" transform="matrix(0.9996 0.0288 -0.0288 0.9996 9.287 -9.2408)" fill="#010D0B" width="4" height="33.55"/>
			</g>
		</g>
		<g>
			<g>
				
					<rect x="322.5" y="340.73" transform="matrix(0.9951 0.0993 -0.0993 0.9951 36.0391 -38.6325)" fill="#010D0B" width="167.24" height="4"/>
			</g>
		</g>
		<g>
			<g>
				
					<rect x="484.6" y="349.07" transform="matrix(0.9993 0.0366 -0.0366 0.9993 15.844 -17.5366)" fill="#010D0B" width="4" height="149.27"/>
			</g>
		</g>
		<g>
			<g>
				
					<rect x="381.81" y="399.33" transform="matrix(0.0142 0.9999 -0.9999 0.0142 879.6505 110.4626)" fill="#010D0B" width="4" height="204"/>
			</g>
		</g>
		<g>
			<g>
				<polygon fill="#010D0B" points="337.01,379.63 303.48,377.35 305.73,351.03 337.61,354.23 				"/>
			</g>
		</g>
		<g>
			<g>
				<polygon fill="#010D0B" points="337.61,416.84 300.1,414.6 301.7,390.64 337.61,392.88 				"/>
			</g>
		</g>
		<g>
			<g>
				<polygon fill="#010D0B" points="334.48,454.85 296.25,453.9 297.05,429.94 335.92,431.7 				"/>
			</g>
		</g>
		<g>
			<g>
				<polygon fill="#010D0B" points="334.32,495.1 295.6,495.1 297.21,468.79 334.32,469.11 				"/>
			</g>
		</g>
		<g>
			<g>
				<polygon fill="#010D0B" points="380.66,382.66 347.65,379.86 349.58,357.42 381.54,359.5 				"/>
			</g>
		</g>
		<g>
			<g>
				<polygon fill="#010D0B" points="379.06,418.75 347.65,417.8 347.65,394.16 380.66,395.76 				"/>
			</g>
		</g>
		<g>
			<g>
				<polygon fill="#010D0B" points="378.65,455.97 343.15,455.97 344.92,432.92 379.94,433.77 				"/>
			</g>
		</g>
		<g>
			<g>
				<polygon fill="#010D0B" points="376.24,493.99 342.67,495.1 342.67,469.55 377.69,469.55 				"/>
			</g>
		</g>
		<g>
			<g>
				<polygon fill="#010D0B" points="420.74,385.53 389.06,384.42 389.73,361.1 422.18,363.03 				"/>
			</g>
		</g>
		<g>
			<g>
				<polygon fill="#010D0B" points="417.85,421.31 389.06,419.99 390.86,397.11 418.81,398.8 				"/>
			</g>
		</g>
		<g>
			<g>
				<polygon fill="#010D0B" points="418.81,458.36 386.81,457.25 387.97,434.57 418.81,435.53 				"/>
			</g>
		</g>
		<g>
			<g>
				<polygon fill="#010D0B" points="417.68,494.31 387.49,494.31 387.49,469.55 417.68,471.02 				"/>
			</g>
		</g>
		<g>
			<g>
				<polygon fill="#010D0B" points="460.46,388.25 430.54,387.45 431.82,363.81 461.7,365.89 				"/>
			</g>
		</g>
		<g>
			<g>
				<polygon fill="#010D0B" points="458.43,422.41 430.54,421.31 432.3,400.22 458.43,401.43 				"/>
			</g>
		</g>
		<g>
			<g>
				<polygon fill="#010D0B" points="457.36,459.01 428.61,458.36 430.54,436.17 458.43,437.12 				"/>
			</g>
		</g>
		<g>
			<g>
				<polygon fill="#010D0B" points="455.6,494.31 426.84,494.31 426.84,470.67 456.24,471.79 				"/>
			</g>
		</g>
		<g>
			<g>
				<polygon fill="#010D0B" points="483.87,390.33 469.25,388.25 469.25,367.16 485.15,368.29 				"/>
			</g>
		</g>
		<g>
			<g>
				<polygon fill="#010D0B" points="482.42,423.71 469.25,423.71 469.25,403.1 482.66,403.1 				"/>
			</g>
		</g>
		<g>
			<g>
				<polygon fill="#010D0B" points="481.13,459.01 465.23,459.01 465.23,437.6 482.66,438.4 				"/>
			</g>
		</g>
		<g>
			<g>
				<polygon fill="#010D0B" points="479.28,494.31 463.79,494.31 465.23,472.62 480.48,473.37 				"/>
			</g>
		</g>
		<g>
			<g>
				<g>
					<polygon fill="#010D0B" points="293.34,375.83 287.58,375.27 290.08,349.8 295.83,350.36 					"/>
				</g>
			</g>
		</g>
		<g>
			<g>
				<g>
					<polygon fill="#010D0B" points="291.71,413.8 285.59,413.8 287.58,388.73 291.99,388.73 					"/>
				</g>
			</g>
		</g>
		<g>
			<g>
				<g>
					<polygon fill="#010D0B" points="288.78,451.66 282.75,452.46 284.52,431.22 289.98,431.22 					"/>
				</g>
			</g>
		</g>
		<g>
			<g>
				<g>
					<polygon fill="#010D0B" points="287.29,495.58 281.53,495.03 281.82,469.55 288.21,469.55 					"/>
				</g>
			</g>
		</g>
		<g>
			<g>
				<g>
					<path fill="#010D0B" d="M745.98,325.35l-1.51,64.03l-1.65-0.33l0.34-24.65l-133.63-5.29l0.3-21.94l-156.49-2.74v8.78
						l40.48,4.31l-5.78,148.53l3.22,0.19l4.49-91.84l61.62,2.36l29.17,36.54l-2.92,61.77l15.57,1.07l2.62-62.34l34.14-31.38
						l94.79,5.68l-3.92,87.84l13.12,1.6l2.54-104.12l1.87-0.11l-1.78,109.99l11.57,5.35l4.51-140.67l1.58,0.7l-5.17,140.62
						l4.01,1.36L766.14,318L745.98,325.35z M599.76,376.03l20.48,0.96v17.72l-20.48-0.96V376.03z M585.39,349.12h9.96v10.54h-9.96
						V349.12z M573.5,352.31h7.06v7.35h-7.06V352.31z M571.33,375.19h19.52v17.37l-19.52-1.16V375.19z M531.58,389.37l-23.13-0.96
						v-15.49l23.13,0.48V389.37z M559.53,390.33l-21.2-0.96v-16.45l21.2,1.2V390.33z M594.47,439.04l-26.75-31.39l57.34,4.32
						L594.47,439.04z M651.81,396.4l-22.65-1.67l1.19-16.5h21.46V396.4z M679.04,396.4h-20.72l0.48-18.17l20.24,1.64V396.4z
						 M707.71,397.59l-19.23-1.2v-16.53l19.23,1.67V397.59z M740.63,399.91l-25.61-2.31l1-15.1l24.61,0.64V399.91z"/>
				</g>
			</g>
		</g>
		<g>
			<g>
				<path fill="#010D0B" d="M508.54,415.65l49.27,1.54l7.48,10.9l-56.94-2.5L508.54,415.65 M505.71,412.68l-0.32,15.65l65.54,2.88
					l-11.56-16.85L505.71,412.68L505.71,412.68z"/>
			</g>
		</g>
		<g>
			<g>
				<path fill="#010D0B" d="M585.88,419.11l21.87,0.9l-7.41,7.58l-8.67-0.65L585.88,419.11 M579.98,415.99l10.15,13.72l11.34,0.85
					l12.85-13.15L579.98,415.99L579.98,415.99z"/>
			</g>
		</g>
		<g>
			<g>
				<path fill="#010D0B" d="M635.88,422.22l89.74,5.5v9.12l-99.49-5.24L635.88,422.22 M634.79,419.27l-15.42,14.85l109.15,5.75
					v-14.85L634.79,419.27L634.79,419.27z"/>
			</g>
		</g>
		<g>
			<g>
				<path fill="#010D0B" d="M508.85,442.04l70.76,3.1v15.01l-70.76-2.95V442.04 M505.95,439.04v20.93l76.54,3.19V442.4
					L505.95,439.04L505.95,439.04z"/>
			</g>
		</g>
		<g>
			<g>
				<path fill="#010D0B" d="M609.17,446.83l113.59,5.02l-0.69,14.37l-112.9-5.18V446.83 M606.27,443.82v19.97l118.55,5.43
					l0.96-20.12L606.27,443.82L606.27,443.82z"/>
			</g>
		</g>
		<g>
			<g>
				<path fill="#010D0B" d="M507.15,472.52l69.89,2.66v15.95l-70.83-2.94L507.15,472.52 M504.43,469.55l-1.28,21.41l76.79,3.19
					v-21.72L504.43,469.55L504.43,469.55z"/>
			</g>
		</g>
		<g>
			<g>
				<path fill="#010D0B" d="M606.75,476.22l113.72,4.25l-0.95,16.1l-112.78-4.72V476.22 M603.86,473.24v21.38l118.39,4.95
					l1.28-21.86L603.86,473.24L603.86,473.24z"/>
			</g>
		</g>
		<g>
			<g>
				<polygon fill="#010D0B" points="118.13,432.25 2.07,424.74 2.34,420.75 118.39,428.26 				"/>
			</g>
		</g>
		<g>
			<g>
				
					<rect x="1.08" y="422.74" transform="matrix(0.9999 0.0112 -0.0112 0.9999 5.864 -1.647949e-003)" fill="#010D0B" width="4" height="198.85"/>
			</g>
		</g>
		<g>
			<g>
				<polygon fill="#010D0B" points="22.46,356.15 17.82,355.51 17.82,338.9 21.82,338.9 				"/>
			</g>
		</g>
		<g>
			<g>
				
					<rect x="17.45" y="362.18" transform="matrix(0.9956 0.0935 -0.0935 0.9956 34.1865 -1.1846)" fill="#010D0B" width="24.56" height="4"/>
			</g>
		</g>
		<g>
			<g>
				<rect x="39.96" y="363.41" fill="#010D0B" width="4" height="23.39"/>
			</g>
		</g>
		<g>
			<g>
				<rect x="40.03" y="384.81" fill="#010D0B" width="24.1" height="4"/>
			</g>
		</g>
		<g>
			<g>
				<rect x="60.44" y="379.15" fill="#010D0B" width="4" height="7.66"/>
			</g>
		</g>
		<g>
			<g>
				
					<rect x="61.22" y="378.11" transform="matrix(0.9994 0.0341 -0.0341 0.9994 13.0008 -2.8223)" fill="#010D0B" width="56.2" height="4"/>
			</g>
		</g>
		<g>
			<g>
				<polygon fill="#010D0B" points="117.21,424.37 13.04,417.84 17.74,360.61 43.39,363.4 43.7,383.93 60.28,383.93 60.28,376.46 
					120.03,378.33 				"/>
			</g>
		</g>
		<g>
			<g>
				<polygon fill="#010D0B" points="40.51,476.44 13.53,477.75 13.53,434.09 42.44,438.47 				"/>
			</g>
		</g>
		<g>
			<g>
				<polygon fill="#010D0B" points="78.34,477.75 48.22,476.96 49.19,438.47 80.27,442.63 				"/>
			</g>
		</g>
		<g>
			<g>
				<polygon fill="#010D0B" points="110.55,479.13 86.29,477.75 87.46,444.6 110.55,444.6 				"/>
			</g>
		</g>
		<g>
			<g>
				<polygon fill="#010D0B" points="36.18,528.64 11.6,528.64 14.01,491.27 36.18,491.27 				"/>
			</g>
		</g>
		<g>
			<g>
				<polygon fill="#010D0B" points="73.64,528.64 46.65,528.59 46.3,492.22 76.18,494.62 				"/>
			</g>
		</g>
		<g>
			<g>
				<polygon fill="#010D0B" points="108.46,528.64 83.16,528.16 83.16,495.1 110.39,495.1 				"/>
			</g>
		</g>
		<g>
			<g>
				
					<rect x="25.38" y="585.05" transform="matrix(0.3147 0.9492 -0.9492 0.3147 600.4749 393.9982)" fill="#010D0B" width="4" height="55.59"/>
			</g>
		</g>
		<g>
			<g>
				
					<rect x="52.8" y="602.94" transform="matrix(0.9999 0.0102 -0.0102 0.9999 6.2028 -1.3469)" fill="#010D0B" width="163.62" height="4"/>
			</g>
		</g>
		<g>
			<g>
				<rect x="214.41" y="603.86" fill="#010D0B" width="4" height="13.89"/>
			</g>
		</g>
		<g>
			<g>
				<rect x="216.41" y="615.75" fill="#010D0B" width="174.45" height="4"/>
			</g>
		</g>
		<g>
			<g>
				
					<rect x="208.83" y="617" transform="matrix(0.9639 0.2661 -0.2661 0.9639 177.3941 -33.0992)" fill="#010D0B" width="4" height="41.99"/>
			</g>
		</g>
		<g>
			<g>
				
					<rect x="380.72" y="637.03" transform="matrix(0.6297 0.7769 -0.7769 0.6297 647.5687 -80.3931)" fill="#010D0B" width="54.78" height="4"/>
			</g>
		</g>
		<g>
			<g>
				<rect x="388.86" y="605.77" fill="#010D0B" width="4" height="11.98"/>
			</g>
		</g>
		<g>
			<g>
				<polygon fill="#010D0B" points="529.16,610.53 388.89,607.77 388.73,603.77 528.51,606.65 				"/>
			</g>
		</g>
		<g>
			<g>
				<polygon fill="#010D0B" points="529.16,610.53 527.78,606.78 571.82,590.53 571.82,594.81 				"/>
			</g>
		</g>
		<g>
			<g>
				<polygon fill="#010D0B" points="734.83,612 737.14,611.67 739.06,649.59 573.57,614.91 573.5,589.49 603.86,580.39 
					737.83,603.38 834.06,706.03 740.91,650.17 738.67,613.02 				"/>
			</g>
		</g>
		<g>
			<g>
				<polygon fill="#010D0B" points="427.43,662.12 423.43,662.12 423.43,634.42 438.88,634.42 438.88,661.8 434.88,661.8 
					434.88,638.42 427.43,638.42 				"/>
			</g>
		</g>
		<g>
			<g>
				<rect x="425.43" y="638.8" fill="#010D0B" width="11.46" height="4"/>
			</g>
		</g>
		<g>
			<g>
				<polygon fill="#010D0B" points="195.47,662.12 191.47,662.12 191.47,634.42 206.92,634.42 206.92,661.8 202.92,664.87 
					202.92,638.42 195.47,638.42 				"/>
			</g>
		</g>
		<g>
			<g>
				<rect x="193.47" y="638.8" fill="#010D0B" width="11.46" height="4"/>
			</g>
		</g>
		<g>
			<g>
				
					<rect x="57.55" y="493.12" transform="matrix(0.019 0.9998 -0.9998 0.019 601.8043 473.5991)" fill="#010D0B" width="4" height="100.73"/>
			</g>
		</g>
		<g>
			<g>
				
					<rect x="768.89" y="324.44" transform="matrix(0.9968 0.0802 -0.0802 0.9968 28.9283 -67.3239)" fill="#010D0B" width="167.28" height="4"/>
			</g>
		</g>
		<g>
			<g>
				<polygon fill="#010D0B" points="866.94,702.66 764.71,600 768.41,597.58 872.59,702.66 				"/>
			</g>
		</g>
		<g>
			<g>
				
					<rect x="633.16" y="585.57" transform="matrix(0.9844 0.1762 -0.1762 0.9844 114.4744 -114.3272)" fill="#010D0B" width="135.96" height="4"/>
			</g>
		</g>
		<g>
			<g>
				<polygon fill="#010D0B" points="619.07,580.39 610.01,578.47 634.57,573.62 636.71,577.57 				"/>
			</g>
		</g>
		<g>
			<g>
				<path fill="#010D0B" d="M824.34,613.78c-18.98,0-35.84-0.97-48.75-3.19l0.68-3.94c62.48,10.77,218.78-8.11,252.29-23.3
					l1.65,3.64C1003.29,599.2,898.01,613.78,824.34,613.78z"/>
			</g>
		</g>
		<g>
			<g>
				<path fill="#010D0B" d="M821.22,598.74c-48.56,0-97.72-3.81-138.84-12.5l0.83-3.91c52.63,11.12,123.51,15,194.49,10.65
					c65.48-4.02,121.59-14.66,146.42-27.78l1.87,3.54C991.92,586.72,907.51,598.74,821.22,598.74z"/>
			</g>
		</g>
		<g>
			<g>
				
					<rect x="724.03" y="467.87" transform="matrix(0.3004 0.9538 -0.9538 0.3004 1034.4636 -306.3069)" fill="#010D0B" width="4" height="168.24"/>
			</g>
		</g>
		<g>
			<g>
				<polygon fill="#010D0B" points="681.77,584.3 676.7,582.53 706.94,568.84 708.28,572.63 				"/>
			</g>
		</g>
		<g>
			<g>
				
					<rect x="705.09" y="581.9" transform="matrix(0.9768 0.2141 -0.2141 0.9768 142.7649 -150.5063)" fill="#010D0B" width="122.36" height="4"/>
			</g>
		</g>
		<g>
			<g>
				<polygon fill="#010D0B" points="824.92,597.09 720.41,573.89 720.56,565.14 868.93,594.52 				"/>
			</g>
		</g>
		<g>
			<g>
				
					<rect x="735.31" y="544.56" transform="matrix(0.3214 0.947 -0.947 0.3214 1032.1594 -317.0962)" fill="#010D0B" width="4" height="34.01"/>
			</g>
		</g>
		<g>
			<g>
				
					<rect x="750.89" y="571.01" transform="matrix(0.9832 0.1826 -0.1826 0.9832 118.8026 -144.3729)" fill="#010D0B" width="185.14" height="4"/>
			</g>
		</g>
		<g>
			<g>
				<polygon fill="#010D0B" points="934.48,589.91 769.65,559.3 769.65,549.08 971.56,582.47 				"/>
			</g>
		</g>
		<g>
			<g>
				
					<rect x="782.3" y="531.55" transform="matrix(0.2856 0.9583 -0.9583 0.2856 1083.8046 -361.3955)" fill="#010D0B" width="4" height="29.41"/>
			</g>
		</g>
		<g>
			<g>
				<polygon fill="#010D0B" points="1007.56,575.94 797.13,544.03 797.82,540.13 1008.16,571.99 				"/>
			</g>
		</g>
		<g>
			<g>
				<polygon fill="#010D0B" points="1007.86,573.96 816.39,544.93 816.39,535.99 1025.05,565.12 				"/>
			</g>
		</g>
		<g>
			<g>
				<rect x="802.25" y="336.66" fill="#010D0B" width="14.14" height="15.65"/>
			</g>
		</g>
		<g>
			<g>
				<rect x="836.94" y="336.66" fill="#010D0B" width="9.64" height="17.72"/>
			</g>
		</g>
		<g>
			<g>
				
					<rect x="801.45" y="332.47" transform="matrix(0.1157 0.9933 -0.9933 0.1157 1078.0687 -470.8039)" fill="#010D0B" width="4" height="75.21"/>
			</g>
		</g>
		<g>
			<g>
				<polygon fill="#010D0B" points="817.92,539.5 816.39,535.99 837.34,529.6 838.47,533.43 				"/>
			</g>
		</g>
		<g>
			<g>
				<polygon fill="#010D0B" points="1018.26,552.44 836.74,533.5 837.34,529.6 1018.67,548.46 				"/>
			</g>
		</g>
		<g>
			<g>
				<path fill="#010D0B" d="M836.94,437.28"/>
			</g>
		</g>
		<g>
			<g>
				<path fill="#010D0B" d="M833.91,527.68"/>
			</g>
		</g>
		<g>
			<g>
				<polygon fill="#010D0B" points="806.15,526.36 761.18,520.72 761.71,516.75 804.91,522.53 				"/>
			</g>
		</g>
		<g>
			<g>
				<polygon fill="#010D0B" points="192.31,574.16 31.36,561.22 31.36,544.44 297.13,574.82 314.73,575.28 317.15,573.76 
					318.09,576.55 				"/>
			</g>
		</g>
		<g>
			<g>
				<polygon fill="#010D0B" points="314.65,576.9 274.25,535.3 277.12,532.51 318.97,575.56 				"/>
			</g>
		</g>
		<g>
			<g>
				<polygon fill="#010D0B" points="30.4,561.22 19.79,567.69 3.08,560.5 30.63,544.44 				"/>
			</g>
		</g>
		<g>
			<g>
				<polygon fill="#010D0B" points="319.82,335.38 307.49,334.43 308.13,320.37 320.54,320.37 				"/>
			</g>
		</g>
		<g>
			<g>
				<polygon fill="#010D0B" points="175.44,244.99 165.33,244.99 166.29,233.01 157.62,233.01 158.1,214.32 177.4,216.22 				"/>
			</g>
		</g>
		<g>
			<g>
				<polygon fill="#010D0B" points="46.33,583.82 2.48,561.61 7.96,559.51 48.17,580.04 				"/>
			</g>
		</g>
		<g>
			<g>
				<polygon fill="#010D0B" points="34.74,589.09 1.5,568.02 3.62,564.63 36.76,585.4 				"/>
			</g>
		</g>
		<g>
			<g>
				
					<rect x="256.02" y="366.56" transform="matrix(0.0166 0.9999 -0.9999 0.0166 831.9628 310.7258)" fill="#010D0B" width="4" height="423.5"/>
			</g>
		</g>
		<g>
			<g>
				<polygon fill="#010D0B" points="34.74,589.09 34.72,585.09 503.99,582.69 503.48,586.69 				"/>
			</g>
		</g>
		<g>
			<g>
				<polygon fill="#010D0B" points="503.85,583.78 388.45,560.14 389.06,556.18 504.37,579.86 				"/>
			</g>
		</g>
		<g>
			<g>
				<polygon fill="#010D0B" points="429.42,574.79 388.45,566.73 388.45,556.49 461.05,573.32 				"/>
			</g>
		</g>
		<g>
			<g>
				<polygon fill="#010D0B" points="390.41,559.95 388.45,556.49 433.23,538.05 436.2,541.2 				"/>
			</g>
		</g>
		<g>
			<g>
				<polygon fill="#010D0B" points="408.1,565.18 406.38,561.57 451.92,539.77 451.99,543.21 				"/>
			</g>
		</g>
		<g>
			<g>
				<polygon fill="#010D0B" points="451.99,543.21 389.9,537.33 389.4,533.83 452.37,539.22 				"/>
			</g>
		</g>
		<g>
			<g>
				<polygon fill="#010D0B" points="418.99,548.14 390.86,545.26 389.65,535.34 430.01,539.9 				"/>
			</g>
		</g>
		<g>
			<g>
				<polygon fill="#010D0B" points="392,536.86 389.4,533.83 405.5,519.94 407.59,523.44 				"/>
			</g>
		</g>
		<g>
			<g>
				<g>
					<polygon fill="#010D0B" points="398.39,531.03 279.8,527.84 279.98,521.13 401.48,524.33 					"/>
				</g>
			</g>
		</g>
		<g>
			<g>
				
					<rect x="281.78" y="538.82" transform="matrix(0.9999 0.0169 -0.0169 0.9999 9.188 -5.6054)" fill="#010D0B" width="108.92" height="4"/>
			</g>
		</g>
		<g>
			<g>
				
					<rect x="521.13" y="575.09" transform="matrix(0.9921 0.1254 -0.1254 0.9921 76.8148 -66.0065)" fill="#010D0B" width="83.06" height="4"/>
			</g>
		</g>
		<g>
			<g>
				<polygon fill="#010D0B" points="521.2,573.87 519.4,570.21 550.73,549.84 552.53,553.5 				"/>
			</g>
		</g>
		<g>
			<g>
				<polygon fill="#010D0B" points="552.53,553.5 473.7,543.72 474.16,540.03 553.03,549.54 				"/>
			</g>
		</g>
		<g>
			<g>
				
					<rect x="486.08" y="518.95" transform="matrix(0.5152 0.8571 -0.8571 0.5152 694.2781 -159.4445)" fill="#010D0B" width="4" height="30.08"/>
			</g>
		</g>
		<g>
			<g>
				<polygon fill="#010D0B" points="452.6,528.01 405.14,523.92 405.5,519.94 452,524.09 				"/>
			</g>
		</g>
		<g>
			<g>
				<polygon fill="#010D0B" points="452.6,528.01 449.11,526.06 455.72,514.24 458.81,515.97 				"/>
			</g>
		</g>
		<g>
			<g>
				
					<rect x="537.48" y="563.23" transform="matrix(0.9959 0.0907 -0.0907 0.9959 53.674 -51.0203)" fill="#010D0B" width="101.78" height="4"/>
			</g>
		</g>
		<g>
			<g>
				
					<rect x="686.66" y="500.73" transform="matrix(0.3023 0.9532 -0.9532 0.3023 1008.3803 -270.0511)" fill="#010D0B" width="4" height="106.12"/>
			</g>
		</g>
		<g>
			<g>
				<polygon fill="#010D0B" points="729.02,540.98 494.15,528.16 488.36,511.39 739.24,521.3 740.1,538.39 				"/>
			</g>
		</g>
		<g>
			<g>
				<polygon fill="#010D0B" points="740.14,513.46 502.66,502.92 502.66,498.77 740.14,509.32 				"/>
			</g>
		</g>
		<g>
			<g>
				<polygon fill="#010D0B" points="461.7,510.03 457.46,518.74 295.88,502.77 464.49,501.33 				"/>
			</g>
		</g>
		<g>
			<g>
				<polygon fill="#010D0B" points="772.53,404.54 768.29,404.54 769.25,381.06 773.5,380.11 				"/>
			</g>
		</g>
		<g>
			<g>
				<polygon fill="#010D0B" points="781.72,404.54 776.51,404.54 777.48,379.14 782.69,378.19 				"/>
			</g>
		</g>
		<g>
			<g>
				<rect x="786.02" y="377.23" fill="#010D0B" width="5.21" height="27.31"/>
			</g>
		</g>
		<g>
			<g>
				<polygon fill="#010D0B" points="801.91,405.5 795.74,405.5 795.74,376.27 801.91,375.31 				"/>
			</g>
		</g>
		<g>
			<g>
				<polygon fill="#010D0B" points="810.87,405.5 805.67,405.5 805.67,375.31 810.87,374.36 				"/>
			</g>
		</g>
		<g>
			<g>
				<polygon fill="#010D0B" points="772.66,444.47 768.42,444.47 768.42,416.19 773.63,416.19 				"/>
			</g>
		</g>
		<g>
			<g>
				<polygon fill="#010D0B" points="781.56,444.87 776.35,444.87 777.32,416.59 782.52,415.63 				"/>
			</g>
		</g>
		<g>
			<g>
				<polygon fill="#010D0B" points="790.11,444.87 784.91,444.87 785.86,415.63 790.11,415.63 				"/>
			</g>
		</g>
		<g>
			<g>
				<polygon fill="#010D0B" points="799.83,444.87 793.65,444.87 794.62,415.63 799.83,414.68 				"/>
			</g>
		</g>
		<g>
			<g>
				<rect x="803.57" y="414.68" fill="#010D0B" width="5.21" height="30.18"/>
			</g>
		</g>
		<g>
			<g>
				<polygon fill="#010D0B" points="773.58,480 768.37,479.6 768.37,452.29 773.58,451.34 				"/>
			</g>
		</g>
		<g>
			<g>
				<polygon fill="#010D0B" points="782.01,480.56 776.8,480.56 776.8,451.34 782.01,450.38 				"/>
			</g>
		</g>
		<g>
			<g>
				<polygon fill="#010D0B" points="790.11,481.52 784.91,480.56 784.91,450.38 790.11,450.38 				"/>
			</g>
		</g>
		<g>
			<g>
				<polygon fill="#010D0B" points="798.86,482.48 793.65,481.52 793.65,450.38 798.86,450.38 				"/>
			</g>
		</g>
		<g>
			<g>
				<polygon fill="#010D0B" points="808.78,483.43 802.62,482.48 802.62,450.38 808.78,450.38 				"/>
			</g>
		</g>
		<g>
			<g>
				<polygon fill="#010D0B" points="773.47,485.92 768.26,486.31 768.26,513.62 773.47,514.58 				"/>
			</g>
		</g>
		<g>
			<g>
				<polygon fill="#010D0B" points="781.9,486.31 776.7,486.31 776.7,515.54 781.9,516.5 				"/>
			</g>
		</g>
		<g>
			<g>
				<polygon fill="#010D0B" points="790.01,487.27 784.8,486.31 784.8,516.5 790.01,517.45 				"/>
			</g>
		</g>
		<g>
			<g>
				<polygon fill="#010D0B" points="798.76,487.27 793.55,487.27 793.55,518.42 798.76,519.37 				"/>
			</g>
		</g>
		<g>
			<g>
				<polygon fill="#010D0B" points="808.67,488.23 802.51,487.27 802.51,519.37 808.67,520.33 				"/>
			</g>
		</g>
		<g>
			<g>
				<path fill="#010D0B" d="M823.58,513.46"/>
			</g>
		</g>
		<g>
			<g>
				
					<rect x="824.18" y="364.06" transform="matrix(0.0444 0.999 -0.999 0.0444 1163.9375 -467.1849)" fill="#010D0B" width="4" height="21.54"/>
			</g>
		</g>
		<g>
			<g>
				<rect x="814.39" y="373.4" fill="#010D0B" width="4" height="31.14"/>
			</g>
		</g>
		<g>
			<g>
				<path fill="#010D0B" d="M841.77,403.82"/>
			</g>
		</g>
		<g>
			<g>
				<path fill="#010D0B" d="M841.77,363.81"/>
			</g>
		</g>
		<g>
			<g>
				
					<rect x="816.38" y="400.63" transform="matrix(0.9997 0.0251 -0.0251 0.9997 10.3627 -20.597)" fill="#010D0B" width="19.05" height="4"/>
			</g>
		</g>
		<g>
			<g>
				
					<rect x="813.78" y="441.5" transform="matrix(0.9997 0.0251 -0.0251 0.9997 11.3948 -20.5313)" fill="#010D0B" width="19.04" height="4"/>
			</g>
		</g>
		<g>
			<g>
				
					<rect x="822.05" y="380.11" transform="matrix(0.9999 0.0118 -0.0118 0.9999 4.6931 -9.7529)" fill="#010D0B" width="8" height="22.76"/>
			</g>
		</g>
		<g>
			<g>
				
					<rect x="821.58" y="404.86" transform="matrix(0.0444 0.999 -0.999 0.0444 1202.2068 -425.5974)" fill="#010D0B" width="4" height="21.55"/>
			</g>
		</g>
		<g>
			<g>
				<rect x="811.78" y="414.2" fill="#010D0B" width="4" height="31.15"/>
			</g>
		</g>
		<g>
			<g>
				
					<rect x="820.4" y="420.91" transform="matrix(0.9999 0.0118 -0.0118 0.9999 5.1761 -9.7306)" fill="#010D0B" width="8" height="22.76"/>
			</g>
		</g>
		<g>
			<g>
				<polygon fill="#010D0B" points="832.5,484.29 813.2,483.99 813.56,479.79 832.6,480.29 				"/>
			</g>
		</g>
		<g>
			<g>
				
					<rect x="821.3" y="441.61" transform="matrix(0.0469 0.9989 -0.9989 0.0469 1236.5996 -391.2169)" fill="#010D0B" width="4" height="21.55"/>
			</g>
		</g>
		<g>
			<g>
				<rect x="811.51" y="450.86" fill="#010D0B" width="4" height="33.14"/>
			</g>
		</g>
		<g>
			<g>
				
					<rect x="820.13" y="458" transform="matrix(0.9999 0.0115 -0.0115 0.9999 5.4482 -9.425)" fill="#010D0B" width="8" height="24.22"/>
			</g>
		</g>
		<g>
			<g>
				<polygon fill="#010D0B" points="831.6,521.63 815.2,521.33 813.26,517.12 831.71,517.63 				"/>
			</g>
		</g>
		<g>
			<g>
				
					<rect x="820.18" y="479.79" transform="matrix(0.0513 0.9987 -0.9987 0.0513 1269.0942 -356.4897)" fill="#010D0B" width="4" height="19.85"/>
			</g>
		</g>
		<g>
			<g>
				<rect x="811.2" y="488.19" fill="#010D0B" width="4" height="33.14"/>
			</g>
		</g>
		<g>
			<g>
				
					<rect x="819.49" y="495.32" transform="matrix(0.9999 0.0112 -0.0112 0.9999 5.7503 -9.2156)" fill="#010D0B" width="8" height="24.22"/>
			</g>
		</g>
		<g>
			<g>
				
					<rect x="236.3" y="623.46" transform="matrix(0.9731 0.2306 -0.2306 0.9731 153.2545 -37.3759)" fill="#010D0B" width="0.5" height="27.18"/>
			</g>
		</g>
		<g>
			<g>
				
					<rect x="259.3" y="640.78" transform="matrix(0.0487 0.9988 -0.9988 0.0487 903.3386 333.6419)" fill="#010D0B" width="34.44" height="0.5"/>
			</g>
		</g>
		<g>
			<g>
				
					<rect x="299.55" y="639.81" transform="matrix(0.3584 0.9336 -0.9336 0.3584 800.872 114.7686)" fill="#010D0B" width="34.77" height="0.5"/>
			</g>
		</g>
		<g>
			<g>
				
					<rect x="346.48" y="640.78" transform="matrix(0.5066 0.8622 -0.8622 0.5066 733.5154 0.374)" fill="#010D0B" width="39.9" height="0.5"/>
			</g>
		</g>
		<g>
			<g>
				<rect x="216.33" y="646.25" fill="#010D0B" width="185.61" height="0.5"/>
			</g>
		</g>
		<g>
			<g>
				<rect x="224.04" y="632.52" fill="#010D0B" width="169.23" height="0.5"/>
			</g>
		</g>
		<g>
			<g>
				<rect x="517.59" y="418.03" fill="#010D0B" width="1" height="6.29"/>
			</g>
		</g>
		<g>
			<g>
				<rect x="527.22" y="418.32" fill="#010D0B" width="1" height="6.01"/>
			</g>
		</g>
		<g>
			<g>
				<rect x="539.11" y="418.75" fill="#010D0B" width="1" height="5.91"/>
			</g>
		</g>
		<g>
			<g>
				<rect x="552.28" y="418.75" fill="#010D0B" width="1" height="5.91"/>
			</g>
		</g>
		<g>
			<g>
				<rect x="595.65" y="420.67" fill="#010D0B" width="1" height="5.91"/>
			</g>
		</g>
		<g>
			<g>
				<rect x="637.58" y="424.19" fill="#010D0B" width="1" height="5.39"/>
			</g>
		</g>
		<g>
			<g>
				<rect x="647.21" y="425.29" fill="#010D0B" width="1" height="5.48"/>
			</g>
		</g>
		<g>
			<g>
				<rect x="656.85" y="425.26" fill="#010D0B" width="1" height="5.95"/>
			</g>
		</g>
		<g>
			<g>
				<rect x="667.17" y="426.22" fill="#010D0B" width="1" height="5.47"/>
			</g>
		</g>
		<g>
			<g>
				<rect x="677.09" y="426.88" fill="#010D0B" width="1" height="5.77"/>
			</g>
		</g>
		<g>
			<g>
				<rect x="686.75" y="427.84" fill="#010D0B" width="1" height="5.77"/>
			</g>
		</g>
		<g>
			<g>
				<rect x="695.89" y="428.33" fill="#010D0B" width="1" height="4.88"/>
			</g>
		</g>
		<g>
			<g>
				<rect x="705.05" y="429.29" fill="#010D0B" width="1" height="5.27"/>
			</g>
		</g>
		<g>
			<g>
				<rect x="714.68" y="429.46" fill="#010D0B" width="1" height="5.7"/>
			</g>
		</g>
		<g>
			<g>
				<rect x="516.62" y="445.35" fill="#010D0B" width="1" height="7.55"/>
			</g>
		</g>
		<g>
			<g>
				<rect x="526.25" y="445.51" fill="#010D0B" width="1" height="8.38"/>
			</g>
		</g>
		<g>
			<g>
				<rect x="535.7" y="446.47" fill="#010D0B" width="1" height="6.42"/>
			</g>
		</g>
		<g>
			<g>
				<rect x="545.09" y="447.43" fill="#010D0B" width="1" height="6.42"/>
			</g>
		</g>
		<g>
			<g>
				<rect x="554.69" y="447.35" fill="#010D0B" width="1" height="7.5"/>
			</g>
		</g>
		<g>
			<g>
				<rect x="563.59" y="448.16" fill="#010D0B" width="1" height="6.68"/>
			</g>
		</g>
		<g>
			<g>
				<rect x="572.04" y="448.95" fill="#010D0B" width="1" height="6.61"/>
			</g>
		</g>
		<g>
			<g>
				<rect x="617.58" y="450.38" fill="#010D0B" width="1" height="7.03"/>
			</g>
		</g>
		<g>
			<g>
				<rect x="626.1" y="450.86" fill="#010D0B" width="1" height="8.15"/>
			</g>
		</g>
		<g>
			<g>
				<rect x="635.65" y="450.86" fill="#010D0B" width="1" height="8.74"/>
			</g>
		</g>
		<g>
			<g>
				<rect x="645.29" y="451.42" fill="#010D0B" width="1" height="8.61"/>
			</g>
		</g>
		<g>
			<g>
				<rect x="654.48" y="452.1" fill="#010D0B" width="1" height="7.94"/>
			</g>
		</g>
		<g>
			<g>
				<rect x="664.08" y="452.89" fill="#010D0B" width="1" height="7.39"/>
			</g>
		</g>
		<g>
			<g>
				<rect x="673.72" y="453.89" fill="#010D0B" width="1" height="7.35"/>
			</g>
		</g>
		<g>
			<g>
				<rect x="683.34" y="454.85" fill="#010D0B" width="1" height="7.35"/>
			</g>
		</g>
		<g>
			<g>
				<rect x="693" y="455.23" fill="#010D0B" width="1" height="7.36"/>
			</g>
		</g>
		<g>
			<g>
				<rect x="704.08" y="455.56" fill="#010D0B" width="1" height="7.03"/>
			</g>
		</g>
		<g>
			<g>
				<rect x="713.72" y="456.09" fill="#010D0B" width="1" height="7.03"/>
			</g>
		</g>
		<g>
			<g>
				<rect x="512.87" y="476.18" fill="#010D0B" width="1" height="9.21"/>
			</g>
		</g>
		<g>
			<g>
				<rect x="522.12" y="476.18" fill="#010D0B" width="1" height="10.22"/>
			</g>
		</g>
		<g>
			<g>
				<rect x="532.04" y="477" fill="#010D0B" width="1" height="10.37"/>
			</g>
		</g>
		<g>
			<g>
				<rect x="541.04" y="478.65" fill="#010D0B" width="1" height="8.72"/>
			</g>
		</g>
		<g>
			<g>
				<rect x="550.76" y="477.7" fill="#010D0B" width="1" height="9.67"/>
			</g>
		</g>
		<g>
			<g>
				<rect x="559.51" y="478.65" fill="#010D0B" width="1" height="8.72"/>
			</g>
		</g>
		<g>
			<g>
				<rect x="568.18" y="479.21" fill="#010D0B" width="1" height="8.16"/>
			</g>
		</g>
		<g>
			<g>
				<rect x="615.9" y="480.16" fill="#010D0B" width="1" height="9.41"/>
			</g>
		</g>
		<g>
			<g>
				<rect x="625.36" y="480.16" fill="#010D0B" width="1" height="9.41"/>
			</g>
		</g>
		<g>
			<g>
				<rect x="634.43" y="480.56" fill="#010D0B" width="1" height="9.01"/>
			</g>
		</g>
		<g>
			<g>
				<rect x="642.69" y="481.36" fill="#010D0B" width="1" height="8.22"/>
			</g>
		</g>
		<g>
			<g>
				<rect x="651.85" y="481.52" fill="#010D0B" width="1" height="9.27"/>
			</g>
		</g>
		<g>
			<g>
				<rect x="660.98" y="482.5" fill="#010D0B" width="1" height="9.08"/>
			</g>
		</g>
		<g>
			<g>
				<rect x="670.55" y="482.5" fill="#010D0B" width="1" height="9.08"/>
			</g>
		</g>
		<g>
			<g>
				<rect x="680.71" y="482.44" fill="#010D0B" width="1" height="10.11"/>
			</g>
		</g>
		<g>
			<g>
				<rect x="692.03" y="483.46" fill="#010D0B" width="1" height="9.08"/>
			</g>
		</g>
		<g>
			<g>
				<rect x="701.19" y="483.46" fill="#010D0B" width="1" height="10.68"/>
			</g>
		</g>
		<g>
			<g>
				<rect x="711.07" y="483.46" fill="#010D0B" width="1" height="10.68"/>
			</g>
		</g>
		<g>
			<g>
				<path fill="#010D0B" d="M488.68,761.02"/>
			</g>
		</g>
		<g>
			<g>
				<path fill="#010D0B" d="M1030.35,584.3"/>
			</g>
		</g>
		<g>
			<g>
				<g>
					<path fill="#010D0B" d="M843.58,362.55l-0.94,71.21l41.77,2.48l-0.23,3.99l-41.71-2.48l-0.73,87.43l91.96,2.8l-3.23-158.44
						L843.58,362.55z M898.96,432.17l-42.75-2.23l1.6-21.41l41.95,3.61L898.96,432.17z"/>
				</g>
			</g>
		</g>
	</g>
	<g id="Layer_2">
		<g>
			<g>
				<g>
					<path fill="#010D0B" d="M-1.94,229.34L-12.52,332.2l162.3,6.92l6.26-98.34L-1.94,229.34z M33.52,295.67l1.55-23.23l11.91,1.07
						l-1.18,22.16H34.52L33.52,295.67z M58.81,295.67H46.53l1.55-22.36l12.91,1.07L58.81,295.67z"/>
				</g>
			</g>
		</g>
	</g>
	<g>
		<g>
			<rect x="926.18" y="332.75" fill="#010D0B" width="4" height="365.36"/>
		</g>
	</g>
</g>
<g>
	<g>
		<rect x="-0.52" y="332.75" fill="#010D0B" width="4" height="441.05"/>
	</g>
</g>
</svg>
